<?xml version="1.0" encoding="UTF-8" standalone="no"?>
<svg
   xmlns:dc="http://purl.org/dc/elements/1.1/"
   xmlns:cc="http://creativecommons.org/ns#"
   xmlns:rdf="http://www.w3.org/1999/02/22-rdf-syntax-ns#"
   xmlns:svg="http://www.w3.org/2000/svg"
   xmlns="http://www.w3.org/2000/svg"
   xmlns:sodipodi="http://sodipodi.sourceforge.net/DTD/sodipodi-0.dtd"
   xmlns:inkscape="http://www.inkscape.org/namespaces/inkscape"
   sodipodi:docname="key.svg"
   inkscape:version="1.0 (4035a4fb49, 2020-05-01)"
   id="svg2796"
   version="1.1"
   viewBox="0 0 213.69652 79.913467"
   height="79.913467mm"
   width="213.69652mm">
  <defs
     id="defs2790" />
  <sodipodi:namedview
     inkscape:window-maximized="1"
     inkscape:window-y="-11"
     inkscape:window-x="-11"
     inkscape:window-height="2066"
     inkscape:window-width="3840"
     fit-margin-bottom="0"
     fit-margin-right="0"
     fit-margin-left="0"
     fit-margin-top="0"
     showgrid="false"
     inkscape:document-rotation="0"
     inkscape:current-layer="layer1"
     inkscape:document-units="mm"
     inkscape:cy="200.15535"
     inkscape:cx="323.22852"
     inkscape:zoom="0.98994949"
     inkscape:pageshadow="2"
     inkscape:pageopacity="0.0"
     borderopacity="1.0"
     bordercolor="#666666"
     pagecolor="#ffffff"
     id="base" />
  <metadata
     id="metadata2793">
    <rdf:RDF>
      <cc:Work
         rdf:about="">
        <dc:format>image/svg+xml</dc:format>
        <dc:type
           rdf:resource="http://purl.org/dc/dcmitype/StillImage" />
        <dc:title></dc:title>
      </cc:Work>
    </rdf:RDF>
  </metadata>
  <g
     transform="translate(-20.312455,-93.009825)"
     id="layer1"
     inkscape:groupmode="layer"
     inkscape:label="Laag 1">
    <path
       sodipodi:nodetypes="ccsccccccccccccccccccccscssss"
       transform="scale(0.26458333)"
       d="m 198.49414,351.5332 c -67.22561,5e-4 -121.722554,67.61319 -121.722656,151.01758 1.02e-4,83.40439 54.497046,151.01708 121.722656,151.01758 50.34093,2.4e-4 95.48826,-54.60838 113.58594,-112.889 h 161.55469 v 58.34017 h 86.13085 l 27.02149,-58.34017 h 48.13086 v 58.34017 h 30.39844 l 26.17773,-58.34017 h 64.17578 l 44.15625,58.34017 42.3086,-59.82274 42.30859,-1.2339 -19.42188,-23.67578 19.42188,-17.32227 -16.04297,-14.31054 16.04297,-14.31055 -46.01953,-23.87624 H 304.02734 c -21.71291,-46.86759 -61.9615,-92.93443 -105.5332,-92.93431 z m -5.15234,66.66992 c 0.0339,-8e-5 0.0677,-8e-5 0.10156,0 22.59497,-0.001 40.91209,36.63234 40.91211,81.82227 -2e-5,45.18993 -18.31714,81.8233 -40.91211,81.82227 -22.59421,-10e-4 -40.91014,-36.63386 -40.91016,-81.82227 -5e-5,-45.10921 18.25407,-81.70917 40.8086,-81.82227 z"
       style="fill:none;fill-opacity:1;stroke:#3aae4e;stroke-width:12.34015764;stroke-linecap:butt;stroke-linejoin:miter;stroke-opacity:1;stroke-miterlimit:4;stroke-dasharray:none"
       id="path3371" />
  </g>
</svg>
