<?xml version="1.0" encoding="UTF-8" standalone="no"?>
<svg
   xmlns:dc="http://purl.org/dc/elements/1.1/"
   xmlns:cc="http://creativecommons.org/ns#"
   xmlns:rdf="http://www.w3.org/1999/02/22-rdf-syntax-ns#"
   xmlns:svg="http://www.w3.org/2000/svg"
   xmlns="http://www.w3.org/2000/svg"
   xmlns:sodipodi="http://sodipodi.sourceforge.net/DTD/sodipodi-0.dtd"
   xmlns:inkscape="http://www.inkscape.org/namespaces/inkscape"
   inkscape:version="1.0 (4035a4fb49, 2020-05-01)"
   sodipodi:docname="loginForm.svg"
   viewBox="0 0 364 364"
   height="364"
   width="364"
   id="svg842"
   version="1.1">
  <metadata
     id="metadata848">
    <rdf:RDF>
      <cc:Work
         rdf:about="">
        <dc:format>image/svg+xml</dc:format>
        <dc:type
           rdf:resource="http://purl.org/dc/dcmitype/StillImage" />
        <dc:title></dc:title>
      </cc:Work>
    </rdf:RDF>
  </metadata>
  <defs
     id="defs846">
    <clipPath
       id="clipPath956"
       clipPathUnits="userSpaceOnUse">
      <path
         sodipodi:nodetypes="ccccccccc"
         id="path958"
         d="m 168.43084,370.32477 c 0,0 2.23088,-342.99659 -63.02213,-399.88383 0,0 5.01946,-40.713413 28.44362,-70.272468 L 84.77314,-137.75635 H 80.032536 L 26.212747,-99.831526 C 49.636904,-70.272471 54.656366,-29.55906 54.656366,-29.55906 -10.596642,27.32818 -8.3657704,370.32477 -8.3657704,370.32477 Z"
         style="fill:#002255;stroke:#000000;stroke-width:1px;stroke-linecap:butt;stroke-linejoin:miter;stroke-opacity:1" />
    </clipPath>
    <clipPath
       id="clipPath960"
       clipPathUnits="userSpaceOnUse">
      <path
         sodipodi:nodetypes="ccccccccc"
         id="path962"
         d="m 168.43084,370.32477 c 0,0 2.23088,-342.99659 -63.02213,-399.88383 0,0 5.01946,-40.713413 28.44362,-70.272468 L 84.77314,-137.75635 H 80.032536 L 26.212747,-99.831526 C 49.636904,-70.272471 54.656366,-29.55906 54.656366,-29.55906 -10.596642,27.32818 -8.3657704,370.32477 -8.3657704,370.32477 Z"
         style="fill:#002255;stroke:#000000;stroke-width:1px;stroke-linecap:butt;stroke-linejoin:miter;stroke-opacity:1" />
    </clipPath>
    <clipPath
       id="clipPath964"
       clipPathUnits="userSpaceOnUse">
      <path
         sodipodi:nodetypes="ccccccccc"
         id="path966"
         d="m 168.43084,370.32477 c 0,0 2.23088,-342.99659 -63.02213,-399.88383 0,0 5.01946,-40.713413 28.44362,-70.272468 L 84.77314,-137.75635 H 80.032536 L 26.212747,-99.831526 C 49.636904,-70.272471 54.656366,-29.55906 54.656366,-29.55906 -10.596642,27.32818 -8.3657704,370.32477 -8.3657704,370.32477 Z"
         style="fill:#002255;stroke:#000000;stroke-width:1px;stroke-linecap:butt;stroke-linejoin:miter;stroke-opacity:1" />
    </clipPath>
    <clipPath
       id="clipPath968"
       clipPathUnits="userSpaceOnUse">
      <path
         sodipodi:nodetypes="ccccccccc"
         id="path970"
         d="m 168.43084,370.32477 c 0,0 2.23088,-342.99659 -63.02213,-399.88383 0,0 5.01946,-40.713413 28.44362,-70.272468 L 84.77314,-137.75635 H 80.032536 L 26.212747,-99.831526 C 49.636904,-70.272471 54.656366,-29.55906 54.656366,-29.55906 -10.596642,27.32818 -8.3657704,370.32477 -8.3657704,370.32477 Z"
         style="fill:#002255;stroke:#000000;stroke-width:1px;stroke-linecap:butt;stroke-linejoin:miter;stroke-opacity:1" />
    </clipPath>
    <clipPath
       id="clipPath972"
       clipPathUnits="userSpaceOnUse">
      <path
         sodipodi:nodetypes="ccccccccc"
         id="path974"
         d="m 168.43084,370.32477 c 0,0 2.23088,-342.99659 -63.02213,-399.88383 0,0 5.01946,-40.713413 28.44362,-70.272468 L 84.77314,-137.75635 H 80.032536 L 26.212747,-99.831526 C 49.636904,-70.272471 54.656366,-29.55906 54.656366,-29.55906 -10.596642,27.32818 -8.3657704,370.32477 -8.3657704,370.32477 Z"
         style="fill:#002255;stroke:#000000;stroke-width:1px;stroke-linecap:butt;stroke-linejoin:miter;stroke-opacity:1" />
    </clipPath>
    <clipPath
       clipPathUnits="userSpaceOnUse"
       id="clipPath972-5">
      <path
         style="fill:#002255;stroke:#000000;stroke-width:1px;stroke-linecap:butt;stroke-linejoin:miter;stroke-opacity:1"
         d="m 168.43084,370.32477 c 0,0 2.23088,-342.99659 -63.02213,-399.88383 0,0 5.01946,-40.713413 28.44362,-70.272468 L 84.77314,-137.75635 H 80.032536 L 26.212747,-99.831526 C 49.636904,-70.272471 54.656366,-29.55906 54.656366,-29.55906 -10.596642,27.32818 -8.3657704,370.32477 -8.3657704,370.32477 Z"
         id="path974-0"
         sodipodi:nodetypes="ccccccccc" />
    </clipPath>
    <clipPath
       clipPathUnits="userSpaceOnUse"
       id="clipPath968-3">
      <path
         style="fill:#002255;stroke:#000000;stroke-width:1px;stroke-linecap:butt;stroke-linejoin:miter;stroke-opacity:1"
         d="m 168.43084,370.32477 c 0,0 2.23088,-342.99659 -63.02213,-399.88383 0,0 5.01946,-40.713413 28.44362,-70.272468 L 84.77314,-137.75635 H 80.032536 L 26.212747,-99.831526 C 49.636904,-70.272471 54.656366,-29.55906 54.656366,-29.55906 -10.596642,27.32818 -8.3657704,370.32477 -8.3657704,370.32477 Z"
         id="path970-9"
         sodipodi:nodetypes="ccccccccc" />
    </clipPath>
    <clipPath
       clipPathUnits="userSpaceOnUse"
       id="clipPath964-5">
      <path
         style="fill:#002255;stroke:#000000;stroke-width:1px;stroke-linecap:butt;stroke-linejoin:miter;stroke-opacity:1"
         d="m 168.43084,370.32477 c 0,0 2.23088,-342.99659 -63.02213,-399.88383 0,0 5.01946,-40.713413 28.44362,-70.272468 L 84.77314,-137.75635 H 80.032536 L 26.212747,-99.831526 C 49.636904,-70.272471 54.656366,-29.55906 54.656366,-29.55906 -10.596642,27.32818 -8.3657704,370.32477 -8.3657704,370.32477 Z"
         id="path966-4"
         sodipodi:nodetypes="ccccccccc" />
    </clipPath>
    <clipPath
       clipPathUnits="userSpaceOnUse"
       id="clipPath960-0">
      <path
         style="fill:#002255;stroke:#000000;stroke-width:1px;stroke-linecap:butt;stroke-linejoin:miter;stroke-opacity:1"
         d="m 168.43084,370.32477 c 0,0 2.23088,-342.99659 -63.02213,-399.88383 0,0 5.01946,-40.713413 28.44362,-70.272468 L 84.77314,-137.75635 H 80.032536 L 26.212747,-99.831526 C 49.636904,-70.272471 54.656366,-29.55906 54.656366,-29.55906 -10.596642,27.32818 -8.3657704,370.32477 -8.3657704,370.32477 Z"
         id="path962-3"
         sodipodi:nodetypes="ccccccccc" />
    </clipPath>
    <clipPath
       clipPathUnits="userSpaceOnUse"
       id="clipPath956-2">
      <path
         style="fill:#002255;stroke:#000000;stroke-width:1px;stroke-linecap:butt;stroke-linejoin:miter;stroke-opacity:1"
         d="m 168.43084,370.32477 c 0,0 2.23088,-342.99659 -63.02213,-399.88383 0,0 5.01946,-40.713413 28.44362,-70.272468 L 84.77314,-137.75635 H 80.032536 L 26.212747,-99.831526 C 49.636904,-70.272471 54.656366,-29.55906 54.656366,-29.55906 -10.596642,27.32818 -8.3657704,370.32477 -8.3657704,370.32477 Z"
         id="path958-7"
         sodipodi:nodetypes="ccccccccc" />
    </clipPath>
    <clipPath
       id="clipPath972-5-9"
       clipPathUnits="userSpaceOnUse">
      <path
         sodipodi:nodetypes="ccccccccc"
         id="path974-0-1"
         d="m 168.43084,370.32477 c 0,0 2.23088,-342.99659 -63.02213,-399.88383 0,0 5.01946,-40.713413 28.44362,-70.272468 L 84.77314,-137.75635 H 80.032536 L 26.212747,-99.831526 C 49.636904,-70.272471 54.656366,-29.55906 54.656366,-29.55906 -10.596642,27.32818 -8.3657704,370.32477 -8.3657704,370.32477 Z"
         style="fill:#002255;stroke:#000000;stroke-width:1px;stroke-linecap:butt;stroke-linejoin:miter;stroke-opacity:1" />
    </clipPath>
    <clipPath
       id="clipPath968-3-8"
       clipPathUnits="userSpaceOnUse">
      <path
         sodipodi:nodetypes="ccccccccc"
         id="path970-9-7"
         d="m 168.43084,370.32477 c 0,0 2.23088,-342.99659 -63.02213,-399.88383 0,0 5.01946,-40.713413 28.44362,-70.272468 L 84.77314,-137.75635 H 80.032536 L 26.212747,-99.831526 C 49.636904,-70.272471 54.656366,-29.55906 54.656366,-29.55906 -10.596642,27.32818 -8.3657704,370.32477 -8.3657704,370.32477 Z"
         style="fill:#002255;stroke:#000000;stroke-width:1px;stroke-linecap:butt;stroke-linejoin:miter;stroke-opacity:1" />
    </clipPath>
    <clipPath
       id="clipPath964-5-9"
       clipPathUnits="userSpaceOnUse">
      <path
         sodipodi:nodetypes="ccccccccc"
         id="path966-4-9"
         d="m 168.43084,370.32477 c 0,0 2.23088,-342.99659 -63.02213,-399.88383 0,0 5.01946,-40.713413 28.44362,-70.272468 L 84.77314,-137.75635 H 80.032536 L 26.212747,-99.831526 C 49.636904,-70.272471 54.656366,-29.55906 54.656366,-29.55906 -10.596642,27.32818 -8.3657704,370.32477 -8.3657704,370.32477 Z"
         style="fill:#002255;stroke:#000000;stroke-width:1px;stroke-linecap:butt;stroke-linejoin:miter;stroke-opacity:1" />
    </clipPath>
    <clipPath
       id="clipPath960-0-5"
       clipPathUnits="userSpaceOnUse">
      <path
         sodipodi:nodetypes="ccccccccc"
         id="path962-3-0"
         d="m 168.43084,370.32477 c 0,0 2.23088,-342.99659 -63.02213,-399.88383 0,0 5.01946,-40.713413 28.44362,-70.272468 L 84.77314,-137.75635 H 80.032536 L 26.212747,-99.831526 C 49.636904,-70.272471 54.656366,-29.55906 54.656366,-29.55906 -10.596642,27.32818 -8.3657704,370.32477 -8.3657704,370.32477 Z"
         style="fill:#002255;stroke:#000000;stroke-width:1px;stroke-linecap:butt;stroke-linejoin:miter;stroke-opacity:1" />
    </clipPath>
    <clipPath
       id="clipPath956-2-6"
       clipPathUnits="userSpaceOnUse">
      <path
         sodipodi:nodetypes="ccccccccc"
         id="path958-7-9"
         d="m 168.43084,370.32477 c 0,0 2.23088,-342.99659 -63.02213,-399.88383 0,0 5.01946,-40.713413 28.44362,-70.272468 L 84.77314,-137.75635 H 80.032536 L 26.212747,-99.831526 C 49.636904,-70.272471 54.656366,-29.55906 54.656366,-29.55906 -10.596642,27.32818 -8.3657704,370.32477 -8.3657704,370.32477 Z"
         style="fill:#002255;stroke:#000000;stroke-width:1px;stroke-linecap:butt;stroke-linejoin:miter;stroke-opacity:1" />
    </clipPath>
    <clipPath
       clipPathUnits="userSpaceOnUse"
       id="clipPath972-5-9-7">
      <path
         style="fill:#002255;stroke:#000000;stroke-width:1px;stroke-linecap:butt;stroke-linejoin:miter;stroke-opacity:1"
         d="m 168.43084,370.32477 c 0,0 2.23088,-342.99659 -63.02213,-399.88383 0,0 5.01946,-40.713413 28.44362,-70.272468 L 84.77314,-137.75635 H 80.032536 L 26.212747,-99.831526 C 49.636904,-70.272471 54.656366,-29.55906 54.656366,-29.55906 -10.596642,27.32818 -8.3657704,370.32477 -8.3657704,370.32477 Z"
         id="path974-0-1-7"
         sodipodi:nodetypes="ccccccccc" />
    </clipPath>
    <clipPath
       clipPathUnits="userSpaceOnUse"
       id="clipPath968-3-8-0">
      <path
         style="fill:#002255;stroke:#000000;stroke-width:1px;stroke-linecap:butt;stroke-linejoin:miter;stroke-opacity:1"
         d="m 168.43084,370.32477 c 0,0 2.23088,-342.99659 -63.02213,-399.88383 0,0 5.01946,-40.713413 28.44362,-70.272468 L 84.77314,-137.75635 H 80.032536 L 26.212747,-99.831526 C 49.636904,-70.272471 54.656366,-29.55906 54.656366,-29.55906 -10.596642,27.32818 -8.3657704,370.32477 -8.3657704,370.32477 Z"
         id="path970-9-7-8"
         sodipodi:nodetypes="ccccccccc" />
    </clipPath>
    <clipPath
       clipPathUnits="userSpaceOnUse"
       id="clipPath964-5-9-6">
      <path
         style="fill:#002255;stroke:#000000;stroke-width:1px;stroke-linecap:butt;stroke-linejoin:miter;stroke-opacity:1"
         d="m 168.43084,370.32477 c 0,0 2.23088,-342.99659 -63.02213,-399.88383 0,0 5.01946,-40.713413 28.44362,-70.272468 L 84.77314,-137.75635 H 80.032536 L 26.212747,-99.831526 C 49.636904,-70.272471 54.656366,-29.55906 54.656366,-29.55906 -10.596642,27.32818 -8.3657704,370.32477 -8.3657704,370.32477 Z"
         id="path966-4-9-7"
         sodipodi:nodetypes="ccccccccc" />
    </clipPath>
    <clipPath
       clipPathUnits="userSpaceOnUse"
       id="clipPath960-0-5-9">
      <path
         style="fill:#002255;stroke:#000000;stroke-width:1px;stroke-linecap:butt;stroke-linejoin:miter;stroke-opacity:1"
         d="m 168.43084,370.32477 c 0,0 2.23088,-342.99659 -63.02213,-399.88383 0,0 5.01946,-40.713413 28.44362,-70.272468 L 84.77314,-137.75635 H 80.032536 L 26.212747,-99.831526 C 49.636904,-70.272471 54.656366,-29.55906 54.656366,-29.55906 -10.596642,27.32818 -8.3657704,370.32477 -8.3657704,370.32477 Z"
         id="path962-3-0-4"
         sodipodi:nodetypes="ccccccccc" />
    </clipPath>
    <clipPath
       clipPathUnits="userSpaceOnUse"
       id="clipPath956-2-6-2">
      <path
         style="fill:#002255;stroke:#000000;stroke-width:1px;stroke-linecap:butt;stroke-linejoin:miter;stroke-opacity:1"
         d="m 168.43084,370.32477 c 0,0 2.23088,-342.99659 -63.02213,-399.88383 0,0 5.01946,-40.713413 28.44362,-70.272468 L 84.77314,-137.75635 H 80.032536 L 26.212747,-99.831526 C 49.636904,-70.272471 54.656366,-29.55906 54.656366,-29.55906 -10.596642,27.32818 -8.3657704,370.32477 -8.3657704,370.32477 Z"
         id="path958-7-9-6"
         sodipodi:nodetypes="ccccccccc" />
    </clipPath>
    <clipPath
       id="clipPath972-5-7"
       clipPathUnits="userSpaceOnUse">
      <path
         sodipodi:nodetypes="ccccccccc"
         id="path974-0-7"
         d="m 168.43084,370.32477 c 0,0 2.23088,-342.99659 -63.02213,-399.88383 0,0 5.01946,-40.713413 28.44362,-70.272468 L 84.77314,-137.75635 H 80.032536 L 26.212747,-99.831526 C 49.636904,-70.272471 54.656366,-29.55906 54.656366,-29.55906 -10.596642,27.32818 -8.3657704,370.32477 -8.3657704,370.32477 Z"
         style="fill:#002255;stroke:#000000;stroke-width:1px;stroke-linecap:butt;stroke-linejoin:miter;stroke-opacity:1" />
    </clipPath>
    <clipPath
       id="clipPath968-3-5"
       clipPathUnits="userSpaceOnUse">
      <path
         sodipodi:nodetypes="ccccccccc"
         id="path970-9-74"
         d="m 168.43084,370.32477 c 0,0 2.23088,-342.99659 -63.02213,-399.88383 0,0 5.01946,-40.713413 28.44362,-70.272468 L 84.77314,-137.75635 H 80.032536 L 26.212747,-99.831526 C 49.636904,-70.272471 54.656366,-29.55906 54.656366,-29.55906 -10.596642,27.32818 -8.3657704,370.32477 -8.3657704,370.32477 Z"
         style="fill:#002255;stroke:#000000;stroke-width:1px;stroke-linecap:butt;stroke-linejoin:miter;stroke-opacity:1" />
    </clipPath>
    <clipPath
       id="clipPath964-5-8"
       clipPathUnits="userSpaceOnUse">
      <path
         sodipodi:nodetypes="ccccccccc"
         id="path966-4-3"
         d="m 168.43084,370.32477 c 0,0 2.23088,-342.99659 -63.02213,-399.88383 0,0 5.01946,-40.713413 28.44362,-70.272468 L 84.77314,-137.75635 H 80.032536 L 26.212747,-99.831526 C 49.636904,-70.272471 54.656366,-29.55906 54.656366,-29.55906 -10.596642,27.32818 -8.3657704,370.32477 -8.3657704,370.32477 Z"
         style="fill:#002255;stroke:#000000;stroke-width:1px;stroke-linecap:butt;stroke-linejoin:miter;stroke-opacity:1" />
    </clipPath>
    <clipPath
       id="clipPath960-0-4"
       clipPathUnits="userSpaceOnUse">
      <path
         sodipodi:nodetypes="ccccccccc"
         id="path962-3-06"
         d="m 168.43084,370.32477 c 0,0 2.23088,-342.99659 -63.02213,-399.88383 0,0 5.01946,-40.713413 28.44362,-70.272468 L 84.77314,-137.75635 H 80.032536 L 26.212747,-99.831526 C 49.636904,-70.272471 54.656366,-29.55906 54.656366,-29.55906 -10.596642,27.32818 -8.3657704,370.32477 -8.3657704,370.32477 Z"
         style="fill:#002255;stroke:#000000;stroke-width:1px;stroke-linecap:butt;stroke-linejoin:miter;stroke-opacity:1" />
    </clipPath>
    <clipPath
       id="clipPath956-2-0"
       clipPathUnits="userSpaceOnUse">
      <path
         sodipodi:nodetypes="ccccccccc"
         id="path958-7-6"
         d="m 168.43084,370.32477 c 0,0 2.23088,-342.99659 -63.02213,-399.88383 0,0 5.01946,-40.713413 28.44362,-70.272468 L 84.77314,-137.75635 H 80.032536 L 26.212747,-99.831526 C 49.636904,-70.272471 54.656366,-29.55906 54.656366,-29.55906 -10.596642,27.32818 -8.3657704,370.32477 -8.3657704,370.32477 Z"
         style="fill:#002255;stroke:#000000;stroke-width:1px;stroke-linecap:butt;stroke-linejoin:miter;stroke-opacity:1" />
    </clipPath>
    <clipPath
       clipPathUnits="userSpaceOnUse"
       id="clipPath972-5-7-0">
      <path
         style="fill:#002255;stroke:#000000;stroke-width:1px;stroke-linecap:butt;stroke-linejoin:miter;stroke-opacity:1"
         d="m 168.43084,370.32477 c 0,0 2.23088,-342.99659 -63.02213,-399.88383 0,0 5.01946,-40.713413 28.44362,-70.272468 L 84.77314,-137.75635 H 80.032536 L 26.212747,-99.831526 C 49.636904,-70.272471 54.656366,-29.55906 54.656366,-29.55906 -10.596642,27.32818 -8.3657704,370.32477 -8.3657704,370.32477 Z"
         id="path974-0-7-3"
         sodipodi:nodetypes="ccccccccc" />
    </clipPath>
    <clipPath
       clipPathUnits="userSpaceOnUse"
       id="clipPath968-3-5-9">
      <path
         style="fill:#002255;stroke:#000000;stroke-width:1px;stroke-linecap:butt;stroke-linejoin:miter;stroke-opacity:1"
         d="m 168.43084,370.32477 c 0,0 2.23088,-342.99659 -63.02213,-399.88383 0,0 5.01946,-40.713413 28.44362,-70.272468 L 84.77314,-137.75635 H 80.032536 L 26.212747,-99.831526 C 49.636904,-70.272471 54.656366,-29.55906 54.656366,-29.55906 -10.596642,27.32818 -8.3657704,370.32477 -8.3657704,370.32477 Z"
         id="path970-9-74-6"
         sodipodi:nodetypes="ccccccccc" />
    </clipPath>
    <clipPath
       clipPathUnits="userSpaceOnUse"
       id="clipPath964-5-8-6">
      <path
         style="fill:#002255;stroke:#000000;stroke-width:1px;stroke-linecap:butt;stroke-linejoin:miter;stroke-opacity:1"
         d="m 168.43084,370.32477 c 0,0 2.23088,-342.99659 -63.02213,-399.88383 0,0 5.01946,-40.713413 28.44362,-70.272468 L 84.77314,-137.75635 H 80.032536 L 26.212747,-99.831526 C 49.636904,-70.272471 54.656366,-29.55906 54.656366,-29.55906 -10.596642,27.32818 -8.3657704,370.32477 -8.3657704,370.32477 Z"
         id="path966-4-3-1"
         sodipodi:nodetypes="ccccccccc" />
    </clipPath>
    <clipPath
       clipPathUnits="userSpaceOnUse"
       id="clipPath960-0-4-0">
      <path
         style="fill:#002255;stroke:#000000;stroke-width:1px;stroke-linecap:butt;stroke-linejoin:miter;stroke-opacity:1"
         d="m 168.43084,370.32477 c 0,0 2.23088,-342.99659 -63.02213,-399.88383 0,0 5.01946,-40.713413 28.44362,-70.272468 L 84.77314,-137.75635 H 80.032536 L 26.212747,-99.831526 C 49.636904,-70.272471 54.656366,-29.55906 54.656366,-29.55906 -10.596642,27.32818 -8.3657704,370.32477 -8.3657704,370.32477 Z"
         id="path962-3-06-9"
         sodipodi:nodetypes="ccccccccc" />
    </clipPath>
    <clipPath
       clipPathUnits="userSpaceOnUse"
       id="clipPath956-2-0-0">
      <path
         style="fill:#002255;stroke:#000000;stroke-width:1px;stroke-linecap:butt;stroke-linejoin:miter;stroke-opacity:1"
         d="m 168.43084,370.32477 c 0,0 2.23088,-342.99659 -63.02213,-399.88383 0,0 5.01946,-40.713413 28.44362,-70.272468 L 84.77314,-137.75635 H 80.032536 L 26.212747,-99.831526 C 49.636904,-70.272471 54.656366,-29.55906 54.656366,-29.55906 -10.596642,27.32818 -8.3657704,370.32477 -8.3657704,370.32477 Z"
         id="path958-7-6-5"
         sodipodi:nodetypes="ccccccccc" />
    </clipPath>
    <clipPath
       id="clipPath972-5-7-0-5"
       clipPathUnits="userSpaceOnUse">
      <path
         sodipodi:nodetypes="ccccccccc"
         id="path974-0-7-3-0"
         d="m 168.43084,370.32477 c 0,0 2.23088,-342.99659 -63.02213,-399.88383 0,0 5.01946,-40.713413 28.44362,-70.272468 L 84.77314,-137.75635 H 80.032536 L 26.212747,-99.831526 C 49.636904,-70.272471 54.656366,-29.55906 54.656366,-29.55906 -10.596642,27.32818 -8.3657704,370.32477 -8.3657704,370.32477 Z"
         style="fill:#002255;stroke:#000000;stroke-width:1px;stroke-linecap:butt;stroke-linejoin:miter;stroke-opacity:1" />
    </clipPath>
    <clipPath
       id="clipPath968-3-5-9-2"
       clipPathUnits="userSpaceOnUse">
      <path
         sodipodi:nodetypes="ccccccccc"
         id="path970-9-74-6-8"
         d="m 168.43084,370.32477 c 0,0 2.23088,-342.99659 -63.02213,-399.88383 0,0 5.01946,-40.713413 28.44362,-70.272468 L 84.77314,-137.75635 H 80.032536 L 26.212747,-99.831526 C 49.636904,-70.272471 54.656366,-29.55906 54.656366,-29.55906 -10.596642,27.32818 -8.3657704,370.32477 -8.3657704,370.32477 Z"
         style="fill:#002255;stroke:#000000;stroke-width:1px;stroke-linecap:butt;stroke-linejoin:miter;stroke-opacity:1" />
    </clipPath>
    <clipPath
       id="clipPath964-5-8-6-7"
       clipPathUnits="userSpaceOnUse">
      <path
         sodipodi:nodetypes="ccccccccc"
         id="path966-4-3-1-3"
         d="m 168.43084,370.32477 c 0,0 2.23088,-342.99659 -63.02213,-399.88383 0,0 5.01946,-40.713413 28.44362,-70.272468 L 84.77314,-137.75635 H 80.032536 L 26.212747,-99.831526 C 49.636904,-70.272471 54.656366,-29.55906 54.656366,-29.55906 -10.596642,27.32818 -8.3657704,370.32477 -8.3657704,370.32477 Z"
         style="fill:#002255;stroke:#000000;stroke-width:1px;stroke-linecap:butt;stroke-linejoin:miter;stroke-opacity:1" />
    </clipPath>
    <clipPath
       id="clipPath960-0-4-0-4"
       clipPathUnits="userSpaceOnUse">
      <path
         sodipodi:nodetypes="ccccccccc"
         id="path962-3-06-9-5"
         d="m 168.43084,370.32477 c 0,0 2.23088,-342.99659 -63.02213,-399.88383 0,0 5.01946,-40.713413 28.44362,-70.272468 L 84.77314,-137.75635 H 80.032536 L 26.212747,-99.831526 C 49.636904,-70.272471 54.656366,-29.55906 54.656366,-29.55906 -10.596642,27.32818 -8.3657704,370.32477 -8.3657704,370.32477 Z"
         style="fill:#002255;stroke:#000000;stroke-width:1px;stroke-linecap:butt;stroke-linejoin:miter;stroke-opacity:1" />
    </clipPath>
    <clipPath
       id="clipPath956-2-0-0-7"
       clipPathUnits="userSpaceOnUse">
      <path
         sodipodi:nodetypes="ccccccccc"
         id="path958-7-6-5-9"
         d="m 168.43084,370.32477 c 0,0 2.23088,-342.99659 -63.02213,-399.88383 0,0 5.01946,-40.713413 28.44362,-70.272468 L 84.77314,-137.75635 H 80.032536 L 26.212747,-99.831526 C 49.636904,-70.272471 54.656366,-29.55906 54.656366,-29.55906 -10.596642,27.32818 -8.3657704,370.32477 -8.3657704,370.32477 Z"
         style="fill:#002255;stroke:#000000;stroke-width:1px;stroke-linecap:butt;stroke-linejoin:miter;stroke-opacity:1" />
    </clipPath>
    <clipPath
       clipPathUnits="userSpaceOnUse"
       id="clipPath972-5-7-0-5-9">
      <path
         style="fill:#002255;stroke:#000000;stroke-width:1px;stroke-linecap:butt;stroke-linejoin:miter;stroke-opacity:1"
         d="m 168.43084,370.32477 c 0,0 2.23088,-342.99659 -63.02213,-399.88383 0,0 5.01946,-40.713413 28.44362,-70.272468 L 84.77314,-137.75635 H 80.032536 L 26.212747,-99.831526 C 49.636904,-70.272471 54.656366,-29.55906 54.656366,-29.55906 -10.596642,27.32818 -8.3657704,370.32477 -8.3657704,370.32477 Z"
         id="path974-0-7-3-0-3"
         sodipodi:nodetypes="ccccccccc" />
    </clipPath>
    <clipPath
       clipPathUnits="userSpaceOnUse"
       id="clipPath968-3-5-9-2-8">
      <path
         style="fill:#002255;stroke:#000000;stroke-width:1px;stroke-linecap:butt;stroke-linejoin:miter;stroke-opacity:1"
         d="m 168.43084,370.32477 c 0,0 2.23088,-342.99659 -63.02213,-399.88383 0,0 5.01946,-40.713413 28.44362,-70.272468 L 84.77314,-137.75635 H 80.032536 L 26.212747,-99.831526 C 49.636904,-70.272471 54.656366,-29.55906 54.656366,-29.55906 -10.596642,27.32818 -8.3657704,370.32477 -8.3657704,370.32477 Z"
         id="path970-9-74-6-8-2"
         sodipodi:nodetypes="ccccccccc" />
    </clipPath>
    <clipPath
       clipPathUnits="userSpaceOnUse"
       id="clipPath964-5-8-6-7-4">
      <path
         style="fill:#002255;stroke:#000000;stroke-width:1px;stroke-linecap:butt;stroke-linejoin:miter;stroke-opacity:1"
         d="m 168.43084,370.32477 c 0,0 2.23088,-342.99659 -63.02213,-399.88383 0,0 5.01946,-40.713413 28.44362,-70.272468 L 84.77314,-137.75635 H 80.032536 L 26.212747,-99.831526 C 49.636904,-70.272471 54.656366,-29.55906 54.656366,-29.55906 -10.596642,27.32818 -8.3657704,370.32477 -8.3657704,370.32477 Z"
         id="path966-4-3-1-3-3"
         sodipodi:nodetypes="ccccccccc" />
    </clipPath>
    <clipPath
       clipPathUnits="userSpaceOnUse"
       id="clipPath960-0-4-0-4-2">
      <path
         style="fill:#002255;stroke:#000000;stroke-width:1px;stroke-linecap:butt;stroke-linejoin:miter;stroke-opacity:1"
         d="m 168.43084,370.32477 c 0,0 2.23088,-342.99659 -63.02213,-399.88383 0,0 5.01946,-40.713413 28.44362,-70.272468 L 84.77314,-137.75635 H 80.032536 L 26.212747,-99.831526 C 49.636904,-70.272471 54.656366,-29.55906 54.656366,-29.55906 -10.596642,27.32818 -8.3657704,370.32477 -8.3657704,370.32477 Z"
         id="path962-3-06-9-5-7"
         sodipodi:nodetypes="ccccccccc" />
    </clipPath>
    <clipPath
       clipPathUnits="userSpaceOnUse"
       id="clipPath956-2-0-0-7-5">
      <path
         style="fill:#002255;stroke:#000000;stroke-width:1px;stroke-linecap:butt;stroke-linejoin:miter;stroke-opacity:1"
         d="m 168.43084,370.32477 c 0,0 2.23088,-342.99659 -63.02213,-399.88383 0,0 5.01946,-40.713413 28.44362,-70.272468 L 84.77314,-137.75635 H 80.032536 L 26.212747,-99.831526 C 49.636904,-70.272471 54.656366,-29.55906 54.656366,-29.55906 -10.596642,27.32818 -8.3657704,370.32477 -8.3657704,370.32477 Z"
         id="path958-7-6-5-9-6"
         sodipodi:nodetypes="ccccccccc" />
    </clipPath>
    <clipPath
       clipPathUnits="userSpaceOnUse"
       id="clipPath972-5-7-0-5-4">
      <path
         style="fill:#002255;stroke:#000000;stroke-width:1px;stroke-linecap:butt;stroke-linejoin:miter;stroke-opacity:1"
         d="m 168.43084,370.32477 c 0,0 2.23088,-342.99659 -63.02213,-399.88383 0,0 5.01946,-40.713413 28.44362,-70.272468 L 84.77314,-137.75635 H 80.032536 L 26.212747,-99.831526 C 49.636904,-70.272471 54.656366,-29.55906 54.656366,-29.55906 -10.596642,27.32818 -8.3657704,370.32477 -8.3657704,370.32477 Z"
         id="path974-0-7-3-0-8"
         sodipodi:nodetypes="ccccccccc" />
    </clipPath>
    <clipPath
       clipPathUnits="userSpaceOnUse"
       id="clipPath968-3-5-9-2-7">
      <path
         style="fill:#002255;stroke:#000000;stroke-width:1px;stroke-linecap:butt;stroke-linejoin:miter;stroke-opacity:1"
         d="m 168.43084,370.32477 c 0,0 2.23088,-342.99659 -63.02213,-399.88383 0,0 5.01946,-40.713413 28.44362,-70.272468 L 84.77314,-137.75635 H 80.032536 L 26.212747,-99.831526 C 49.636904,-70.272471 54.656366,-29.55906 54.656366,-29.55906 -10.596642,27.32818 -8.3657704,370.32477 -8.3657704,370.32477 Z"
         id="path970-9-74-6-8-6"
         sodipodi:nodetypes="ccccccccc" />
    </clipPath>
    <clipPath
       clipPathUnits="userSpaceOnUse"
       id="clipPath964-5-8-6-7-5">
      <path
         style="fill:#002255;stroke:#000000;stroke-width:1px;stroke-linecap:butt;stroke-linejoin:miter;stroke-opacity:1"
         d="m 168.43084,370.32477 c 0,0 2.23088,-342.99659 -63.02213,-399.88383 0,0 5.01946,-40.713413 28.44362,-70.272468 L 84.77314,-137.75635 H 80.032536 L 26.212747,-99.831526 C 49.636904,-70.272471 54.656366,-29.55906 54.656366,-29.55906 -10.596642,27.32818 -8.3657704,370.32477 -8.3657704,370.32477 Z"
         id="path966-4-3-1-3-8"
         sodipodi:nodetypes="ccccccccc" />
    </clipPath>
    <clipPath
       clipPathUnits="userSpaceOnUse"
       id="clipPath960-0-4-0-4-1">
      <path
         style="fill:#002255;stroke:#000000;stroke-width:1px;stroke-linecap:butt;stroke-linejoin:miter;stroke-opacity:1"
         d="m 168.43084,370.32477 c 0,0 2.23088,-342.99659 -63.02213,-399.88383 0,0 5.01946,-40.713413 28.44362,-70.272468 L 84.77314,-137.75635 H 80.032536 L 26.212747,-99.831526 C 49.636904,-70.272471 54.656366,-29.55906 54.656366,-29.55906 -10.596642,27.32818 -8.3657704,370.32477 -8.3657704,370.32477 Z"
         id="path962-3-06-9-5-8"
         sodipodi:nodetypes="ccccccccc" />
    </clipPath>
    <clipPath
       clipPathUnits="userSpaceOnUse"
       id="clipPath956-2-0-0-7-9">
      <path
         style="fill:#002255;stroke:#000000;stroke-width:1px;stroke-linecap:butt;stroke-linejoin:miter;stroke-opacity:1"
         d="m 168.43084,370.32477 c 0,0 2.23088,-342.99659 -63.02213,-399.88383 0,0 5.01946,-40.713413 28.44362,-70.272468 L 84.77314,-137.75635 H 80.032536 L 26.212747,-99.831526 C 49.636904,-70.272471 54.656366,-29.55906 54.656366,-29.55906 -10.596642,27.32818 -8.3657704,370.32477 -8.3657704,370.32477 Z"
         id="path958-7-6-5-9-8"
         sodipodi:nodetypes="ccccccccc" />
    </clipPath>
    <clipPath
       clipPathUnits="userSpaceOnUse"
       id="clipPath972-5-7-0-5-99">
      <path
         style="fill:#002255;stroke:#000000;stroke-width:1px;stroke-linecap:butt;stroke-linejoin:miter;stroke-opacity:1"
         d="m 168.43084,370.32477 c 0,0 2.23088,-342.99659 -63.02213,-399.88383 0,0 5.01946,-40.713413 28.44362,-70.272468 L 84.77314,-137.75635 H 80.032536 L 26.212747,-99.831526 C 49.636904,-70.272471 54.656366,-29.55906 54.656366,-29.55906 -10.596642,27.32818 -8.3657704,370.32477 -8.3657704,370.32477 Z"
         id="path974-0-7-3-0-84"
         sodipodi:nodetypes="ccccccccc" />
    </clipPath>
    <clipPath
       clipPathUnits="userSpaceOnUse"
       id="clipPath968-3-5-9-2-1">
      <path
         style="fill:#002255;stroke:#000000;stroke-width:1px;stroke-linecap:butt;stroke-linejoin:miter;stroke-opacity:1"
         d="m 168.43084,370.32477 c 0,0 2.23088,-342.99659 -63.02213,-399.88383 0,0 5.01946,-40.713413 28.44362,-70.272468 L 84.77314,-137.75635 H 80.032536 L 26.212747,-99.831526 C 49.636904,-70.272471 54.656366,-29.55906 54.656366,-29.55906 -10.596642,27.32818 -8.3657704,370.32477 -8.3657704,370.32477 Z"
         id="path970-9-74-6-8-26"
         sodipodi:nodetypes="ccccccccc" />
    </clipPath>
    <clipPath
       clipPathUnits="userSpaceOnUse"
       id="clipPath964-5-8-6-7-52">
      <path
         style="fill:#002255;stroke:#000000;stroke-width:1px;stroke-linecap:butt;stroke-linejoin:miter;stroke-opacity:1"
         d="m 168.43084,370.32477 c 0,0 2.23088,-342.99659 -63.02213,-399.88383 0,0 5.01946,-40.713413 28.44362,-70.272468 L 84.77314,-137.75635 H 80.032536 L 26.212747,-99.831526 C 49.636904,-70.272471 54.656366,-29.55906 54.656366,-29.55906 -10.596642,27.32818 -8.3657704,370.32477 -8.3657704,370.32477 Z"
         id="path966-4-3-1-3-6"
         sodipodi:nodetypes="ccccccccc" />
    </clipPath>
    <clipPath
       clipPathUnits="userSpaceOnUse"
       id="clipPath960-0-4-0-4-15">
      <path
         style="fill:#002255;stroke:#000000;stroke-width:1px;stroke-linecap:butt;stroke-linejoin:miter;stroke-opacity:1"
         d="m 168.43084,370.32477 c 0,0 2.23088,-342.99659 -63.02213,-399.88383 0,0 5.01946,-40.713413 28.44362,-70.272468 L 84.77314,-137.75635 H 80.032536 L 26.212747,-99.831526 C 49.636904,-70.272471 54.656366,-29.55906 54.656366,-29.55906 -10.596642,27.32818 -8.3657704,370.32477 -8.3657704,370.32477 Z"
         id="path962-3-06-9-5-1"
         sodipodi:nodetypes="ccccccccc" />
    </clipPath>
    <clipPath
       clipPathUnits="userSpaceOnUse"
       id="clipPath956-2-0-0-7-6">
      <path
         style="fill:#002255;stroke:#000000;stroke-width:1px;stroke-linecap:butt;stroke-linejoin:miter;stroke-opacity:1"
         d="m 168.43084,370.32477 c 0,0 2.23088,-342.99659 -63.02213,-399.88383 0,0 5.01946,-40.713413 28.44362,-70.272468 L 84.77314,-137.75635 H 80.032536 L 26.212747,-99.831526 C 49.636904,-70.272471 54.656366,-29.55906 54.656366,-29.55906 -10.596642,27.32818 -8.3657704,370.32477 -8.3657704,370.32477 Z"
         id="path958-7-6-5-9-5"
         sodipodi:nodetypes="ccccccccc" />
    </clipPath>
  </defs>
  <sodipodi:namedview
     inkscape:current-layer="g850"
     inkscape:window-maximized="1"
     inkscape:window-y="-11"
     inkscape:window-x="-11"
     inkscape:cy="183.97178"
     inkscape:cx="208.52807"
     inkscape:zoom="3.5860415"
     inkscape:pagecheckerboard="false"
     showgrid="false"
     id="namedview844"
     inkscape:window-height="2066"
     inkscape:window-width="3840"
     inkscape:pageshadow="2"
     inkscape:pageopacity="0"
     guidetolerance="10"
     gridtolerance="10"
     objecttolerance="10"
     borderopacity="1"
     bordercolor="#666666"
     pagecolor="#ffffff" />
  <g
     id="g850"
     inkscape:label="Image"
     inkscape:groupmode="layer">
    <rect
       y="-0.55771804"
       x="-1.1154361"
       height="365.3053"
       width="518.9566"
       id="rect1472"
       style="fill:#808080;stroke:none;stroke-width:1;stroke-linecap:square;stop-color:#000000" />
    <path
       sodipodi:nodetypes="ccccccc"
       id="path1004-1-5"
       d="m 132.02764,103.72223 c -28.22983,0.10978 -26.67278,36.11969 -26.67278,36.11969 l 29.99394,-0.43914 h 9.91369 l 30.19879,0.43914 c 0,0 1.35219,-36.00991 -26.87764,-36.11969 z"
       style="fill:none;fill-opacity:1;stroke:#ffffff;stroke-width:1px;stroke-linecap:butt;stroke-linejoin:miter;stroke-opacity:1" />
    <ellipse
       cy="84.050529"
       cx="140.30563"
       id="path1021-3-5"
       style="fill:none;stroke:#ffffff;stroke-width:0.999994;stroke-linecap:square;stop-color:#000000"
       rx="19.400427"
       ry="17.264244" />
    <path
       sodipodi:nodetypes="cccc"
       id="path1091"
       d="m 129.08869,65.798759 v -10.27474 h 22.43388 v 10.27474"
       style="fill:#000000;stroke:#000000;stroke-width:1px;stroke-linecap:butt;stroke-linejoin:miter;stroke-opacity:1" />
    <path
       id="path1110"
       d="M 173.89412,55.227214 V 67.500738"
       style="fill:#000000;stroke:#000000;stroke-width:0.999999px;stroke-linecap:butt;stroke-linejoin:miter;stroke-opacity:1" />
    <path
       sodipodi:nodetypes="ccccc"
       id="path1112"
       d="m 106.71714,55.227213 h 67.17698 v -2.071437 h -67.17698 z"
       style="fill:#000000;stroke:#000000;stroke-width:1px;stroke-linecap:butt;stroke-linejoin:miter;stroke-opacity:1" />
    <path
       sodipodi:nodetypes="cccc"
       id="path1114"
       d="m 172.10736,74.422524 c 0,0 0,-6.904789 1.66242,-6.904789 1.66242,0 1.66242,6.904789 1.66242,6.904789 z"
       style="fill:none;stroke:#ffffff;stroke-width:1px;stroke-linecap:butt;stroke-linejoin:miter;stroke-opacity:1" />
    <path
       id="path1967"
       d="m 140.40552,109.88088 v 29.04385"
       style="fill:none;stroke:#ffffff;stroke-width:0.999993px;stroke-linecap:butt;stroke-linejoin:miter;stroke-opacity:1" />
    <path
       sodipodi:nodetypes="ccccccc"
       id="path1004-1-5-9-1"
       d="m 100.47429,290.45094 c -19.061503,0.0741 -18.010143,24.3715 -18.010143,24.3715 l 20.252673,-0.29631 h 6.69397 l 20.391,0.29631 c 0,0 0.91304,-24.29742 -18.14847,-24.3715 z"
       style="fill:none;fill-opacity:1;stroke:#ffffff;stroke-width:1px;stroke-linecap:butt;stroke-linejoin:miter;stroke-opacity:1" />
    <ellipse
       cy="278.35599"
       cx="106.31274"
       id="path1021-3-0"
       style="fill:none;stroke:#ffffff;stroke-width:0.999996;stroke-linecap:square;stop-color:#000000"
       rx="11.977751"
       ry="10.617548" />
    <path
       sodipodi:nodetypes="ccccccc"
       id="path1004-1-5-9-11"
       d="m 171.53258,290.3463 c -19.0615,0.0741 -18.01014,24.3715 -18.01014,24.3715 l 20.25267,-0.29631 h 6.69397 l 20.391,0.29631 c 0,0 0.91304,-24.29742 -18.14847,-24.3715 z"
       style="fill:none;fill-opacity:1;stroke:#ffffff;stroke-width:1px;stroke-linecap:butt;stroke-linejoin:miter;stroke-opacity:1" />
    <ellipse
       ry="10.617548"
       rx="11.977751"
       style="fill:none;stroke:#ffffff;stroke-width:0.999996;stroke-linecap:square;stop-color:#000000"
       id="path1021-3-0-1"
       cx="177.17616"
       cy="278.35599" />
    <path
       style="fill:none;stroke:#ffffff;stroke-width:0.755906;stroke-linecap:butt;stroke-linejoin:miter;stroke-miterlimit:4;stroke-dasharray:none;stroke-opacity:1"
       d="m 106.13123,295.19013 v 18.66569"
       id="path1967-1" />
    <path
       id="path1967-1-8"
       d="m 177.18952,295.19013 v 18.66569"
       style="fill:none;stroke:#ffffff;stroke-width:0.755906;stroke-linecap:butt;stroke-linejoin:miter;stroke-miterlimit:4;stroke-dasharray:none;stroke-opacity:1" />
    <path
       style="fill:none;fill-opacity:1;stroke:#ffffff;stroke-width:0.999996px;stroke-linecap:butt;stroke-linejoin:miter;stroke-opacity:1"
       d="m 136.53647,267.85438 c -17.26542,0.0671 -16.31313,22.07479 -16.31313,22.07479 l 18.34435,-0.26838 h 6.06323 l 18.46965,0.26838 c 0,0 0.82701,-22.00769 -16.43842,-22.07479 z"
       id="path1004-1-5-9"
       sodipodi:nodetypes="ccccccc" />
    <ellipse
       style="fill:none;stroke:#ffffff;stroke-width:0.999996;stroke-linecap:square;stop-color:#000000"
       id="path1021-3-0-7"
       cx="141.66042"
       cy="256.91833"
       rx="10.849142"
       ry="9.6169786" />
    <path
       id="path1967-1-1"
       d="m 141.7998,273.87592 v 16.03723"
       style="fill:none;stroke:#ffffff;stroke-width:0.755905;stroke-linecap:butt;stroke-linejoin:miter;stroke-miterlimit:4;stroke-dasharray:none;stroke-opacity:1" />
    <rect
       y="21.751003"
       x="68.599319"
       height="143.6124"
       width="143.6124"
       id="rect2023"
       style="fill:none;fill-opacity:1;stroke:#ffffff;stroke-width:0.755906;stroke-linecap:square;stroke-miterlimit:4;stroke-dasharray:none;stop-color:#000000" />
    <rect
       style="fill:none;fill-opacity:1;stroke:#ffffff;stroke-width:0.755906;stroke-linecap:square;stroke-miterlimit:4;stroke-dasharray:none;stop-color:#000000"
       id="rect2023-5"
       width="143.6124"
       height="143.6124"
       x="69.854179"
       y="209.28369" />
    <rect
       style="fill:none;fill-opacity:1;stroke:#ffffff;stroke-width:0.755906;stroke-linecap:square;stroke-miterlimit:4;stroke-dasharray:none;stop-color:#000000"
       id="rect2023-2"
       width="143.6124"
       height="143.6124"
       x="248.46338"
       y="21.751001" />
    <g
       transform="translate(0.41829203)"
       id="g2110">
      <path
         sodipodi:nodetypes="ccccccc"
         id="path1004-3"
         d="m 308.95281,98.998137 c -37.16623,0.14568 -44.01648,47.930753 -44.01648,47.930753 l 48.38898,-0.58274 h 13.05195 l 48.38898,0.58274 c 0,0 -6.85025,-47.785073 -44.01648,-47.930753 z"
         style="fill:none;stroke:#ffffff;stroke-width:0.999998px;stroke-linecap:butt;stroke-linejoin:miter;stroke-opacity:1" />
      <ellipse
         cy="70.807861"
         cx="318.64517"
         id="path1021-5"
         style="fill:none;stroke:#ffffff;stroke-width:0.999998;stroke-linecap:square;stop-color:#000000"
         rx="26.453615"
         ry="26.442041" />
    </g>
  </g>
</svg>
