<?xml version="1.0" encoding="UTF-8" standalone="no"?>
<svg
   xmlns:dc="http://purl.org/dc/elements/1.1/"
   xmlns:cc="http://creativecommons.org/ns#"
   xmlns:rdf="http://www.w3.org/1999/02/22-rdf-syntax-ns#"
   xmlns:svg="http://www.w3.org/2000/svg"
   xmlns="http://www.w3.org/2000/svg"
   xmlns:sodipodi="http://sodipodi.sourceforge.net/DTD/sodipodi-0.dtd"
   xmlns:inkscape="http://www.inkscape.org/namespaces/inkscape"
   inkscape:version="1.0 (4035a4fb49, 2020-05-01)"
   height="325.29562"
   width="368.13947"
   sodipodi:docname="moodlelogo.svg"
   preserveAspectRatio="xMinYMid meet"
   xml:space="preserve"
   viewBox="0 0 368.13948 325.29561"
   y="0px"
   x="0px"
   id="Layer_1"
   version="1.1"><metadata
   id="metadata23"><rdf:RDF><cc:Work
       rdf:about=""><dc:format>image/svg+xml</dc:format><dc:type
         rdf:resource="http://purl.org/dc/dcmitype/StillImage" /><dc:title></dc:title></cc:Work></rdf:RDF></metadata><defs
   id="defs21">
	
	
	
	
	
	
	
</defs><sodipodi:namedview
   inkscape:current-layer="Layer_1"
   inkscape:window-maximized="1"
   inkscape:window-y="-11"
   inkscape:window-x="-11"
   inkscape:cy="121.98509"
   inkscape:cx="88.11568"
   inkscape:zoom="1.2589344"
   fit-margin-bottom="0"
   fit-margin-right="0"
   fit-margin-left="0"
   fit-margin-top="0"
   showgrid="false"
   id="namedview19"
   inkscape:window-height="2066"
   inkscape:window-width="3840"
   inkscape:pageshadow="2"
   inkscape:pageopacity="0"
   guidetolerance="10"
   gridtolerance="10"
   objecttolerance="10"
   borderopacity="1"
   bordercolor="#666666"
   pagecolor="#ffffff" />
<g
   transform="translate(-116.96052,-76.533537)"
   id="g886"><path
     id="path2"
     d="m 418.28025,356.83135 v -108.3 c 0,-22.6 -9.4,-34 -28,-34 -18.7,0 -28.1,11.3 -28.1,34 v 108.3 h -55.1 v -108.3 c 0,-22.6 -9.2,-34 -27.6,-34 -18.7,0 -28,11.3 -28,34 v 108.3 h -55.1 v -114.7 c 0,-23.6 8.2,-41.5 24.6,-53.6 14.4,-10.8 34,-16.3 58.6,-16.3 24.9,0 43.3,6.4 55.1,19.2 10.2,-12.8 28.7,-19.2 55.6,-19.2 24.6,0 44.1,5.4 58.5,16.3 16.4,12.1 24.6,30 24.6,53.6 v 114.7 z"
     style="fill:#f98012" /><path
     id="path14"
     d="m 303.38025,163.93135 54.7,-40 -0.7,-2.4 c -98.7,12.1 -143.6,20.7 -228.7,70 l 0.8,2.2 6.8,0.1 c -0.6,6.8 -1.7,23.6 -0.3,49 -9.4,27.3 -0.2,45.9 8.4,66.1 1.4,-21 1.2,-44 -5.2,-66.9 -1.3,-25.1 -0.2,-41.7 0.4,-48.1 l 56.4,0.5 c 0,0 -0.4,17 1.7,33.1 50.4,17.7 101.1,-0.1 128,-43.7 -7.6,-8.5 -22.3,-19.9 -22.3,-19.9 z"
     style="fill:#333333" /></g>
<rect
   y="0"
   x="0"
   height="325.29562"
   width="368.13947"
   id="rect882"
   style="fill:none;stroke:none;stroke-width:11.3386;stroke-linecap:round;stop-color:#000000" /></svg>
